<svg width="512" height="512" viewBox="0 0 512 512" fill="none" xmlns="http://www.w3.org/2000/svg">
<path d="M418.383 21.5468C310.886 7.08094 201.939 7.04292 94.4321 21.4338C76.0569 23.8275 58.9751 32.1855 45.8086 45.2247C32.6421 58.264 24.1188 75.264 21.5468 93.6151C7.07951 201.112 7.04292 310.061 21.438 417.568C23.8309 435.943 32.1884 453.025 45.2274 466.192C58.2664 479.358 75.2662 487.882 93.6172 490.454C147.442 497.697 201.69 501.332 256 501.334C310.035 501.333 364.011 497.735 417.568 490.564C435.944 488.171 453.026 479.813 466.192 466.774C479.359 453.735 487.882 436.734 490.454 418.383C497.698 364.559 501.333 310.31 501.334 256C501.333 201.965 497.736 147.99 490.564 94.4322C488.171 76.0569 479.813 58.9751 466.773 45.8086C453.734 32.6422 436.734 24.1188 418.383 21.5468ZM365.604 277.609L261.645 407.015C259.398 409.836 256.543 412.114 253.292 413.676C250.041 415.238 246.479 416.045 242.872 416.036C239.989 416.031 237.128 415.534 234.413 414.567C229.847 413.057 225.871 410.149 223.048 406.255C220.225 402.361 218.698 397.678 218.684 392.868V291.556H176.043C168.99 291.678 162.05 289.786 156.034 286.103C150.019 282.419 145.178 277.097 142.08 270.761C139.265 264.917 138.175 258.392 138.939 251.95C139.702 245.509 142.288 239.419 146.392 234.396L250.351 104.99C253.529 101.042 257.866 98.1792 262.751 96.8263C267.636 95.4733 272.822 95.6873 277.579 97.438C282.145 98.9479 286.121 101.856 288.944 105.75C291.767 109.644 293.293 114.327 293.308 119.136V220.448H335.953C343.004 220.327 349.944 222.219 355.959 225.901C361.973 229.584 366.813 234.904 369.912 241.24C372.728 247.083 373.819 253.608 373.056 260.05C372.293 266.491 369.708 272.585 365.604 277.609Z" fill="#EC4F27"/>
<path d="M335.957 241.782H282.645C279.816 241.782 277.103 240.658 275.103 238.657C273.102 236.657 271.979 233.944 271.979 231.115V119.136C271.979 118.876 271.979 118.084 270.5 117.562C269.906 117.303 269.245 117.24 268.612 117.381C267.979 117.521 267.407 117.859 266.978 118.345L163.021 247.751C161.428 249.634 160.419 251.94 160.116 254.387C159.813 256.835 160.229 259.317 161.314 261.532C162.689 264.231 164.805 266.482 167.414 268.021C170.023 269.56 173.017 270.322 176.045 270.219H229.357C232.186 270.219 234.899 271.343 236.899 273.343C238.9 275.343 240.023 278.057 240.023 280.886V392.864C240.023 393.124 240.023 393.916 241.502 394.439C242.099 394.686 242.758 394.742 243.389 394.6C244.019 394.458 244.59 394.124 245.024 393.645L348.981 264.25C350.574 262.367 351.583 260.061 351.886 257.613C352.189 255.166 351.773 252.683 350.688 250.468C349.314 247.769 347.198 245.518 344.588 243.979C341.979 242.44 338.985 241.678 335.957 241.782Z" fill="#EC4F27"/>
</svg>
