<svg width="502" height="66" viewBox="0 0 502 66" fill="none" xmlns="http://www.w3.org/2000/svg">
<path d="M29.66 44.1901L14.14 51.7001L0 45.9001L15.52 38.3901L29.66 44.1901Z" fill="#EC4F27"/>
<path d="M48.96 34.85L35.2 41.5L15.15 33.28C7.87 30.29 7.55002 20.09 14.64 16.67L49.08 0L63.22 5.80002L27.22 23.22C26.04 23.79 26.1 25.48 27.3 25.98L48.95 34.85H48.96Z" fill="#EC4F27"/>
<path d="M53.89 15.8501L69.41 8.33008L83.55 14.1301L68.03 21.6401L53.89 15.8501Z" fill="#EC4F27"/>
<path d="M34.58 25.19L48.34 18.54L68.39 26.76C75.67 29.75 75.99 39.9501 68.9 43.3701L34.46 60.04L20.32 54.2401L56.32 36.82C57.5 36.25 57.44 34.56 56.24 34.06L34.59 25.19H34.58Z" fill="#EC4F27"/>
<path d="M121.69 36.0001C120.1 34.6501 118.2 33.6801 116.01 33.0801C113.82 32.4901 111.64 31.9801 109.47 31.5501C107.3 31.1301 105.43 30.6201 103.86 30.0201C102.29 29.4201 101.48 28.8601 101.43 28.3401C101.38 27.8101 101.36 27.5301 101.36 27.4801C101.36 26.6301 101.86 25.9101 102.85 25.3101C103.9 24.6601 105.37 24.3401 107.26 24.3401C108.41 24.3401 109.41 24.4801 110.25 24.7501C111.1 25.0201 111.72 25.3201 112.12 25.6501C112.52 25.9701 112.85 26.3301 113.1 26.7301C113.34 27.1301 113.49 27.4201 113.54 27.5901C113.59 27.7701 113.62 27.9001 113.62 28.0001H123.41L123.26 26.9501C123.16 26.2101 122.81 25.3101 122.22 24.2601C121.62 23.2201 120.81 22.1701 119.79 21.1201C118.76 20.0801 117.14 19.1901 114.93 18.4701C112.71 17.7501 110.13 17.3901 107.19 17.3901C102.45 17.3901 98.72 18.4301 95.98 20.5301C93.23 22.6201 91.86 24.9901 91.86 27.6301V28.3001C92.01 30.7901 93.27 32.7701 95.64 34.2401C98.01 35.7101 100.55 36.6601 103.26 37.0801C105.98 37.5101 108.46 38.0901 110.7 38.8401C112.95 39.5901 114.09 40.5601 114.14 41.7601V41.9101C114.14 44.3001 112.15 45.4901 108.16 45.4901H107.94C106.54 45.4901 105.34 45.3101 104.35 44.9301C103.35 44.5601 102.63 44.1501 102.18 43.7001C101.73 43.2501 101.38 42.7301 101.13 42.1301C100.88 41.5301 100.75 41.1201 100.72 40.9001C100.7 40.6701 100.69 40.4901 100.69 40.3401H90.97L91.12 41.6101C91.22 42.4601 91.58 43.4601 92.2 44.6301C92.82 45.8101 93.66 46.9901 94.71 48.1901C95.75 49.3801 97.38 50.4001 99.6 51.2501C101.82 52.1001 104.4 52.5201 107.34 52.5201C113.02 52.5201 117.26 51.5301 120.05 49.5301C122.84 47.5401 124.23 45.0201 124.23 41.9801V41.1601C124.13 39.0701 123.29 37.3501 121.69 36.0001Z" fill="white"/>
<path d="M153.02 18.1299L143.22 41.6799L133.5 18.1299H123.41L138.44 51.7699H148.01L163.11 18.1299H153.02Z" fill="white"/>
<path d="M197.05 35.0301C197.05 29.7001 195.52 25.4201 192.45 22.2101C189.39 18.9901 185.11 17.3901 179.63 17.3901C174.15 17.3901 169.66 19.0101 166.47 22.2401C163.28 25.5301 161.69 29.8001 161.69 35.0301C161.69 40.2601 163.34 44.6101 166.66 47.7701C169.97 50.9401 174.32 52.5201 179.71 52.5201C182.4 52.5201 184.81 52.1201 186.96 51.3301C189.1 50.5301 190.72 49.6401 191.82 48.6701C192.91 47.7001 193.85 46.5801 194.62 45.3101C195.39 44.0401 195.86 43.1501 196.04 42.6501C196.21 42.1601 196.33 41.7601 196.38 41.4601H186.73L186.58 41.8301C186.48 42.0801 186.27 42.3801 185.95 42.7301C185.62 43.0801 185.22 43.4101 184.75 43.7401C184.28 44.0601 183.6 44.3501 182.73 44.6001C181.86 44.8501 180.87 44.9701 179.78 44.9701C177.44 44.9701 175.46 44.3201 173.84 43.0301C172.22 41.7301 171.31 39.9901 171.11 37.7901H196.9C197 36.8501 197.05 35.9301 197.05 35.0301ZM187.7 31.3701H171.11C171.41 29.4701 172.32 27.9301 173.84 26.7301C175.36 25.5301 177.31 24.9401 179.71 24.9401C182.11 24.9401 183.97 25.5001 185.46 26.6201C186.96 27.7401 187.7 29.2501 187.7 31.1401V31.3701Z" fill="white"/>
<path d="M225.46 40.5601C225.16 41.5601 224.38 42.5401 223.14 43.5101C221.89 44.4901 220.32 44.9701 218.43 44.9701C215.64 44.9701 213.49 44.0401 212 42.1701C210.5 40.3001 209.76 37.7901 209.76 34.6501C209.76 31.5101 210.49 29.1701 211.96 27.4801C213.43 25.7801 215.59 24.9401 218.43 24.9401C219.62 24.9401 220.71 25.1001 221.68 25.4201C222.65 25.7501 223.37 26.1101 223.85 26.5101C224.32 26.9101 224.75 27.3501 225.12 27.8501C225.49 28.3501 225.7 28.7101 225.75 28.9401C225.8 29.1601 225.85 29.3201 225.9 29.4201H235.7L235.47 28.1501C235.37 27.3501 234.97 26.3601 234.28 25.1601C233.58 23.9601 232.68 22.7801 231.59 21.6101C230.49 20.4401 228.78 19.4401 226.46 18.6201C224.15 17.8001 221.47 17.3901 218.43 17.3901C212.65 17.3901 208.14 18.9601 204.9 22.1001C201.61 25.2901 199.96 29.4701 199.96 34.6501C199.96 40.1901 201.58 44.5501 204.82 47.7401C208.06 50.9301 212.6 52.5201 218.43 52.5201C221.42 52.5201 224.06 52.0401 226.35 51.0601C228.64 50.0901 230.34 49.0201 231.44 47.8501C232.53 46.6801 233.44 45.3201 234.16 43.7801C234.89 42.2301 235.3 41.1601 235.4 40.5601C235.5 39.9601 235.57 39.4901 235.62 39.1401H225.9L225.46 40.5601Z" fill="white"/>
<path d="M270.87 22.3901C267.46 19.0601 262.78 17.3901 256.85 17.3901C250.92 17.3901 246.26 19.0601 242.87 22.3901C239.43 25.7301 237.71 29.9201 237.71 34.9501C237.71 39.9801 239.42 44.1101 242.84 47.4801C246.25 50.8401 250.92 52.5201 256.85 52.5201C262.78 52.5201 267.47 50.8501 270.91 47.5101C274.3 44.2201 275.99 40.0401 275.99 34.9501C275.99 29.8601 274.28 25.7301 270.87 22.3901ZM263.77 42.0901C262.15 44.0101 259.84 44.9701 256.85 44.9701C253.86 44.9701 251.5 44.0301 249.9 42.1301C248.3 40.2401 247.51 37.8401 247.51 34.9501C247.51 32.0601 248.3 29.5501 249.9 27.7001C251.5 25.8601 253.81 24.9401 256.85 24.9401C259.89 24.9401 262.21 25.8601 263.81 27.7001C265.4 29.5501 266.2 31.9601 266.2 34.9501C266.2 37.9401 265.39 40.1801 263.77 42.0901Z" fill="white"/>
<path d="M309.26 36.0001C307.66 34.6501 305.77 33.6801 303.58 33.0801C301.38 32.4901 299.2 31.9801 297.04 31.5501C294.87 31.1301 293 30.6201 291.43 30.0201C289.86 29.4201 289.05 28.8601 289 28.3401C288.95 27.8101 288.92 27.5301 288.92 27.4801C288.92 26.6301 289.42 25.9101 290.42 25.3101C291.47 24.6601 292.94 24.3401 294.83 24.3401C295.98 24.3401 296.97 24.4801 297.82 24.7501C298.67 25.0201 299.29 25.3201 299.69 25.6501C300.09 25.9701 300.41 26.3301 300.66 26.7301C300.91 27.1301 301.06 27.4201 301.11 27.5901C301.16 27.7701 301.18 27.9001 301.18 28.0001H310.98L310.83 26.9501C310.73 26.2101 310.38 25.3101 309.78 24.2601C309.18 23.2201 308.37 22.1701 307.35 21.1201C306.33 20.0801 304.71 19.1901 302.49 18.4701C300.27 17.7501 297.7 17.3901 294.75 17.3901C290.02 17.3901 286.28 18.4301 283.54 20.5301C280.8 22.6201 279.43 24.9901 279.43 27.6301V28.3001C279.58 30.7901 280.84 32.7701 283.21 34.2401C285.57 35.7101 288.11 36.6601 290.83 37.0801C293.55 37.5101 296.03 38.0901 298.27 38.8401C300.51 39.5901 301.66 40.5601 301.71 41.7601V41.9101C301.71 44.3001 299.71 45.4901 295.73 45.4901H295.5C294.11 45.4901 292.91 45.3101 291.91 44.9301C290.92 44.5601 290.2 44.1501 289.75 43.7001C289.3 43.2501 288.95 42.7301 288.7 42.1301C288.45 41.5301 288.31 41.1201 288.29 40.9001C288.26 40.6701 288.25 40.4901 288.25 40.3401H278.53L278.68 41.6101C278.78 42.4601 279.14 43.4601 279.77 44.6301C280.39 45.8101 281.22 46.9901 282.27 48.1901C283.32 49.3801 284.95 50.4001 287.17 51.2501C289.38 52.1001 291.96 52.5201 294.9 52.5201C300.59 52.5201 304.82 51.5301 307.61 49.5301C310.4 47.5401 311.8 45.0201 311.8 41.9801V41.1601C311.7 39.0701 310.85 37.3501 309.26 36.0001Z" fill="white"/>
<path d="M338.12 18.1299L329.52 40.5599L321.37 18.1299H311.28L325.26 51.4799L323.99 54.8399C323.54 55.8899 323.08 56.5699 322.6 56.8999C322.13 57.2199 321.27 57.3799 320.02 57.3799H313.97V65.4599H320.02C321.77 65.4599 323.26 65.3099 324.51 65.0099C325.75 64.7099 326.78 64.3299 327.57 63.8799C328.37 63.4399 329.12 62.6999 329.82 61.6799C330.51 60.6599 331.08 59.7099 331.5 58.8399C331.92 57.9699 332.48 56.6299 333.18 54.8399L348.13 18.1299H338.12Z" fill="white"/>
<path d="M378.19 36.0001C376.59 34.6501 374.7 33.6801 372.5 33.0801C370.31 32.4901 368.13 31.9801 365.96 31.5501C363.79 31.1301 361.92 30.6201 360.36 30.0201C358.79 29.4201 357.97 28.8601 357.93 28.3401C357.87 27.8101 357.85 27.5301 357.85 27.4801C357.85 26.6301 358.35 25.9101 359.35 25.3101C360.39 24.6601 361.86 24.3401 363.76 24.3401C364.9 24.3401 365.9 24.4801 366.75 24.7501C367.59 25.0201 368.22 25.3201 368.62 25.6501C369.01 25.9701 369.34 26.3301 369.59 26.7301C369.84 27.1301 369.99 27.4201 370.04 27.5901C370.09 27.7701 370.11 27.9001 370.11 28.0001H379.9L379.75 26.9501C379.65 26.2101 379.31 25.3101 378.71 24.2601C378.11 23.2201 377.3 22.1701 376.28 21.1201C375.26 20.0801 373.64 19.1901 371.42 18.4701C369.2 17.7501 366.62 17.3901 363.68 17.3901C358.95 17.3901 355.21 18.4301 352.47 20.5301C349.73 22.6201 348.36 24.9901 348.36 27.6301V28.3001C348.51 30.7901 349.76 32.7701 352.13 34.2401C354.5 35.7101 357.04 36.6601 359.76 37.0801C362.47 37.5101 364.95 38.0901 367.2 38.8401C369.44 39.5901 370.58 40.5601 370.63 41.7601V41.9101C370.63 44.3001 368.64 45.4901 364.65 45.4901H364.43C363.03 45.4901 361.84 45.3101 360.84 44.9301C359.84 44.5601 359.12 44.1501 358.67 43.7001C358.22 43.2501 357.87 42.7301 357.63 42.1301C357.38 41.5301 357.24 41.1201 357.22 40.9001C357.19 40.6701 357.18 40.4901 357.18 40.3401H347.46L347.61 41.6101C347.71 42.4601 348.07 43.4601 348.69 44.6301C349.32 45.8101 350.15 46.9901 351.2 48.1901C352.24 49.3801 353.88 50.4001 356.09 51.2501C358.31 52.1001 360.89 52.5201 363.83 52.5201C369.51 52.5201 373.75 51.5301 376.54 49.5301C379.33 47.5401 380.73 45.0201 380.73 41.9801V41.1601C380.63 39.0701 379.78 37.3501 378.19 36.0001Z" fill="white"/>
<path d="M384.88 26.21V41.16C384.88 45.45 385.74 48.29 387.46 49.68C389.18 51.08 392.36 51.77 396.99 51.77H402.6V43.7H396.99C396.1 43.7 395.47 43.51 395.12 43.14C394.77 42.77 394.6 42.11 394.6 41.16V26.21H384.88ZM402.6 18.13H394.53V8.27002H384.88V18.13L394.6 26.21H402.6V18.13Z" fill="white"/>
<path d="M439.53 35.0301C439.53 29.7001 438 25.4201 434.93 22.2101C431.87 18.9901 427.59 17.3901 422.11 17.3901C416.63 17.3901 412.14 19.0101 408.96 22.2401C405.77 25.5301 404.17 29.8001 404.17 35.0301C404.17 40.2601 405.83 44.6101 409.14 47.7701C412.46 50.9401 416.81 52.5201 422.19 52.5201C424.88 52.5201 427.3 52.1201 429.44 51.3301C431.58 50.5301 433.2 49.6401 434.3 48.6701C435.39 47.7001 436.33 46.5801 437.1 45.3101C437.87 44.0401 438.35 43.1501 438.52 42.6501C438.7 42.1601 438.81 41.7601 438.86 41.4601H429.22L429.06 41.8301C428.97 42.0801 428.75 42.3801 428.43 42.7301C428.11 43.0801 427.71 43.4101 427.23 43.7401C426.76 44.0601 426.09 44.3501 425.22 44.6001C424.34 44.8501 423.36 44.9701 422.26 44.9701C419.92 44.9701 417.94 44.3201 416.32 43.0301C414.7 41.7301 413.79 39.9901 413.59 37.7901H439.38C439.48 36.8501 439.53 35.9301 439.53 35.0301ZM430.19 31.3701H413.59C413.89 29.4701 414.8 27.9301 416.32 26.7301C417.84 25.5301 419.8 24.9401 422.19 24.9401C424.58 24.9401 426.45 25.5001 427.94 26.6201C429.44 27.7401 430.19 29.2501 430.19 31.1401V31.3701Z" fill="white"/>
<path d="M498.37 21.4601C496.22 18.7401 492.66 17.3901 487.68 17.3901H486.85C481.77 17.5401 477.93 19.6001 475.34 23.5901C473.25 19.4501 469.19 17.3901 463.15 17.3901H462.48C457.95 17.5401 454.61 19.3801 452.46 22.9201V18.1301H443.19V51.7701H452.84V36.3701C452.84 32.4901 453.47 29.6201 454.74 27.7801C456.02 25.9301 458.17 25.0101 461.21 25.0101C463.2 25.0101 464.76 25.7301 465.88 27.1801C467.01 28.6201 467.57 30.7401 467.57 33.5301V51.7701H477.21V36.3701C477.21 32.4901 477.85 29.6201 479.12 27.7801C480.39 25.9301 482.54 25.0101 485.58 25.0101C487.58 25.0101 489.13 25.7301 490.26 27.1801C491.38 28.6201 491.94 30.7401 491.94 33.5301V51.7701H501.58V33.5301C501.58 28.2001 500.51 24.1801 498.37 21.4601Z" fill="white"/>
</svg>
