<svg width="623" height="123" viewBox="0 0 623 123" fill="none" xmlns="http://www.w3.org/2000/svg">
<path d="M102.12 3.17676C75.4268 -0.415379 48.3732 -0.424822 21.6773 3.14868C17.1145 3.74309 12.8727 5.81852 9.60325 9.05641C6.33378 12.2943 4.21727 16.5157 3.57861 21.0726C-0.0138802 47.7661 -0.0229663 74.82 3.55159 101.516C4.1458 106.079 6.22111 110.321 9.45892 113.59C12.6967 116.86 16.9181 118.976 21.475 119.615C34.8406 121.413 48.3115 122.316 61.7976 122.316C75.2155 122.316 88.6186 121.423 101.918 119.642C106.481 119.048 110.723 116.973 113.992 113.735C117.262 110.497 119.378 106.275 120.017 101.718C121.816 88.3528 122.718 74.8818 122.718 61.3957C122.718 47.9778 121.825 34.5747 120.044 21.2755C119.45 16.7126 117.374 12.4709 114.136 9.2014C110.898 5.93193 106.677 3.81542 102.12 3.17676ZM89.0143 66.7615L63.1993 98.8953C62.6414 99.596 61.9323 100.161 61.125 100.549C60.3177 100.937 59.4332 101.138 58.5375 101.136C57.8217 101.134 57.1114 101.011 56.4371 100.771C55.3032 100.396 54.3159 99.6736 53.615 98.7067C52.914 97.7397 52.5349 96.5769 52.5313 95.3826V70.225H41.9427C40.1915 70.2551 38.468 69.7853 36.9742 68.8707C35.4805 67.9561 34.2785 66.6345 33.5092 65.061C32.8101 63.61 32.5395 61.9896 32.7291 60.3901C32.9188 58.7906 33.5608 57.2784 34.5798 56.031L60.3948 23.8972C61.184 22.9167 62.261 22.206 63.474 21.87C64.687 21.534 65.9748 21.5872 67.156 22.0219C68.2899 22.3968 69.2771 23.1189 69.9781 24.0858C70.679 25.0528 71.0581 26.2157 71.0618 27.4099V52.5675H81.6514C83.4023 52.5375 85.1255 53.0072 86.6191 53.9217C88.1126 54.8361 89.3145 56.1573 90.0838 57.7304C90.7832 59.1814 91.0541 60.8017 90.8646 62.4013C90.6752 64.0008 90.0333 65.5141 89.0143 66.7615Z" fill="#0C835F"/>
<path d="M81.6524 57.8652H68.4141C67.7116 57.8652 67.0379 57.5861 66.5411 57.0894C66.0444 56.5926 65.7653 55.9189 65.7653 55.2164V27.4101C65.7653 27.3455 65.7653 27.149 65.3982 27.0192C65.2506 26.955 65.0864 26.9393 64.9293 26.9742C64.7722 27.0091 64.6302 27.0929 64.5236 27.2136L38.7091 59.3474C38.3137 59.815 38.063 60.3876 37.9878 60.9954C37.9125 61.6031 38.0159 62.2196 38.2853 62.7695C38.6267 63.4398 39.1522 63.9988 39.8001 64.3809C40.448 64.763 41.1915 64.9523 41.9432 64.9267H55.1816C55.884 64.9267 56.5578 65.2057 57.0545 65.7025C57.5512 66.1992 57.8303 66.8729 57.8303 67.5754V95.3817C57.8303 95.4463 57.8303 95.6429 58.1974 95.7727C58.3457 95.834 58.5094 95.848 58.6659 95.8127C58.8225 95.7775 58.9643 95.6946 59.072 95.5756L84.8865 63.4444C85.2819 62.9768 85.5326 62.4042 85.6078 61.7965C85.6831 61.1887 85.5797 60.5722 85.3103 60.0223C84.969 59.352 84.4435 58.7929 83.7956 58.4108C83.1477 58.0287 82.4042 57.8394 81.6524 57.8652Z" fill="#0C835F"/>
<path d="M569.191 117.408V44.6054H585.875V53.6713H586.393C587.082 52.0627 588.059 50.5115 589.323 49.0177C590.609 47.524 592.241 46.306 594.217 45.3638C596.217 44.3986 598.607 43.916 601.387 43.916C605.064 43.916 608.5 44.8812 611.694 46.8116C614.912 48.742 617.508 51.718 619.485 55.7396C621.461 59.7612 622.449 64.886 622.449 71.1137C622.449 77.1117 621.496 82.133 619.588 86.1776C617.704 90.2222 615.153 93.2557 611.936 95.278C608.741 97.3003 605.191 98.3115 601.284 98.3115C598.618 98.3115 596.309 97.8748 594.355 97.0016C592.402 96.1283 590.759 94.9793 589.426 93.5545C588.116 92.1297 587.105 90.6014 586.393 88.9698H586.048V117.408H569.191ZM585.703 71.0793C585.703 73.9289 586.082 76.4108 586.841 78.525C587.622 80.6393 588.737 82.2824 590.184 83.4544C591.655 84.6035 593.413 85.178 595.458 85.178C597.527 85.178 599.285 84.6035 600.733 83.4544C602.18 82.2824 603.272 80.6393 604.007 78.525C604.766 76.4108 605.145 73.9289 605.145 71.0793C605.145 68.2297 604.766 65.7592 604.007 63.668C603.272 61.5767 602.18 59.9566 600.733 58.8075C599.308 57.6585 597.55 57.084 595.458 57.084C593.39 57.084 591.632 57.647 590.184 58.7731C588.737 59.8991 587.622 61.5078 586.841 63.599C586.082 65.6903 585.703 68.1837 585.703 71.0793Z" fill="#181818"/>
<path d="M530.153 98.4494C526.774 98.4494 523.775 97.8863 521.156 96.7603C518.559 95.6112 516.502 93.8877 514.985 91.5896C513.491 89.2685 512.745 86.3615 512.745 82.8684C512.745 79.9269 513.262 77.4449 514.296 75.4226C515.33 73.4003 516.755 71.7572 518.57 70.4933C520.386 69.2293 522.477 68.2756 524.844 67.6322C527.211 66.9657 529.739 66.5176 532.428 66.2878C535.438 66.012 537.863 65.7248 539.701 65.426C541.54 65.1043 542.872 64.6562 543.7 64.0816C544.55 63.4841 544.975 62.6453 544.975 61.5652V61.3929C544.975 59.6234 544.366 58.256 543.148 57.2908C541.93 56.3256 540.287 55.843 538.219 55.843C535.99 55.843 534.197 56.3256 532.841 57.2908C531.485 58.256 530.624 59.5889 530.256 61.2895L514.709 60.7379C515.169 57.5206 516.353 54.648 518.26 52.1201C520.19 49.5693 522.833 47.57 526.188 46.1222C529.567 44.6514 533.623 43.916 538.357 43.916C541.735 43.916 544.849 44.3182 547.698 45.1225C550.548 45.9038 553.03 47.0529 555.144 48.5696C557.258 50.0634 558.89 51.9018 560.039 54.085C561.211 56.2682 561.797 58.7616 561.797 61.5652V97.5531H545.94V90.1763H545.527C544.584 91.9688 543.378 93.4855 541.907 94.7265C540.459 95.9674 538.747 96.8982 536.771 97.5186C534.818 98.1391 532.611 98.4494 530.153 98.4494ZM535.358 87.4186C537.173 87.4186 538.805 87.0509 540.253 86.3155C541.723 85.5801 542.895 84.569 543.769 83.2821C544.642 81.9722 545.079 80.4554 545.079 78.7319V73.6991C544.596 73.9519 544.01 74.1817 543.321 74.3885C542.654 74.5953 541.919 74.7907 541.114 74.9745C540.31 75.1584 539.483 75.3192 538.632 75.4571C537.782 75.595 536.966 75.7214 536.185 75.8363C534.599 76.0891 533.243 76.4798 532.117 77.0083C531.014 77.5369 530.164 78.2263 529.567 79.0766C528.992 79.9039 528.705 80.8921 528.705 82.0411C528.705 83.7876 529.325 85.1205 530.566 86.0397C531.83 86.959 533.427 87.4186 535.358 87.4186Z" fill="#181818"/>
<path d="M473.473 67.3564V97.5531H456.616V44.6054H472.645V54.3263H473.231C474.403 51.086 476.403 48.5466 479.229 46.7082C482.056 44.8467 485.423 43.916 489.329 43.916C493.052 43.916 496.281 44.7548 499.016 46.4324C501.773 48.087 503.911 50.4081 505.427 53.3956C506.967 56.3601 507.725 59.8302 507.702 63.8059V97.5531H490.846V67.1151C490.869 64.1736 490.122 61.8755 488.605 60.2209C487.112 58.5662 485.032 57.7389 482.366 57.7389C480.597 57.7389 479.034 58.1296 477.678 58.911C476.345 59.6693 475.311 60.7609 474.576 62.1857C473.863 63.6105 473.496 65.3341 473.473 67.3564Z" fill="#181818"/>
<path d="M449.919 60.7724L434.442 61.1861C434.281 60.083 433.844 59.1063 433.132 58.256C432.42 57.3827 431.489 56.7048 430.34 56.2222C429.214 55.7166 427.904 55.4638 426.41 55.4638C424.457 55.4638 422.791 55.8545 421.412 56.6359C420.056 57.4172 419.39 58.4743 419.412 59.8072C419.39 60.8413 419.803 61.7376 420.653 62.496C421.527 63.2543 423.078 63.8633 425.307 64.3229L435.511 66.2533C440.796 67.2645 444.726 68.9421 447.3 71.2861C449.896 73.6301 451.206 76.7325 451.229 80.5933C451.206 84.2243 450.126 87.3841 447.989 90.0729C445.875 92.7616 442.979 94.8529 439.302 96.3466C435.625 97.8174 431.42 98.5528 426.686 98.5528C419.125 98.5528 413.162 97.0016 408.795 93.8992C404.452 90.7738 401.97 86.5913 401.35 81.3517L417.999 80.938C418.367 82.8684 419.321 84.3392 420.86 85.3503C422.4 86.3615 424.365 86.8671 426.755 86.8671C428.915 86.8671 430.673 86.4649 432.029 85.6606C433.385 84.8562 434.074 83.7876 434.097 82.4548C434.074 81.2598 433.546 80.306 432.512 79.5936C431.477 78.8583 429.857 78.2837 427.651 77.8701L418.413 76.1121C413.104 75.1469 409.152 73.3659 406.555 70.769C403.958 68.1492 402.671 64.817 402.694 60.7724C402.671 57.2334 403.613 54.2114 405.521 51.7065C407.428 49.1786 410.14 47.2482 413.656 45.9153C417.172 44.5825 421.32 43.916 426.1 43.916C433.27 43.916 438.923 45.4213 443.06 48.4317C447.196 51.4192 449.483 55.5328 449.919 60.7724Z" fill="#181818"/>
<path d="M316.739 97.5531V44.6054H332.768V54.3263H333.354C334.457 51.109 336.319 48.5696 338.939 46.7082C341.558 44.8467 344.684 43.916 348.315 43.916C351.992 43.916 355.14 44.8582 357.76 46.7426C360.38 48.6271 362.046 51.155 362.758 54.3263H363.31C364.298 51.1779 366.228 48.6615 369.101 46.7771C371.974 44.8697 375.363 43.916 379.27 43.916C384.28 43.916 388.347 45.5247 391.473 48.742C394.598 51.9363 396.161 56.3256 396.161 61.91V97.5531H379.304V65.7707C379.304 63.1279 378.626 61.1171 377.271 59.7383C375.915 58.3364 374.157 57.6355 371.996 57.6355C369.675 57.6355 367.848 58.3939 366.516 59.9106C365.206 61.4044 364.551 63.4152 364.551 65.9431V97.5531H348.349V65.5984C348.349 63.1394 347.683 61.1975 346.35 59.7727C345.017 58.3479 343.259 57.6355 341.076 57.6355C339.605 57.6355 338.307 57.9917 337.181 58.7041C336.055 59.3936 335.17 60.3817 334.526 61.6686C333.906 62.9556 333.596 64.4723 333.596 66.2188V97.5531H316.739Z" fill="#181818"/>
<path d="M278.795 97.5529V44.6052H295.169V54.2572H295.72C296.685 50.7641 298.26 48.1673 300.443 46.4667C302.626 44.7431 305.165 43.8813 308.061 43.8813C308.842 43.8813 309.647 43.9388 310.474 44.0537C311.301 44.1456 312.071 44.295 312.783 44.5018V59.1521C311.979 58.8763 310.922 58.658 309.612 58.4971C308.325 58.3362 307.176 58.2558 306.165 58.2558C304.166 58.2558 302.362 58.7039 300.753 59.6002C299.167 60.4735 297.915 61.7029 296.996 63.2886C296.099 64.8513 295.651 66.6898 295.651 68.804V97.5529H278.795Z" fill="#181818"/>
<path d="M246.322 98.5528C240.761 98.5528 235.981 97.4152 231.982 95.1401C228.007 92.8421 224.939 89.6477 222.779 85.5572C220.641 81.4436 219.573 76.6751 219.573 71.2516C219.573 65.8052 220.641 61.0367 222.779 56.9461C224.939 52.8325 228.007 49.6382 231.982 47.3631C235.981 45.0651 240.761 43.916 246.322 43.916C251.884 43.916 256.652 45.0651 260.628 47.3631C264.627 49.6382 267.694 52.8325 269.832 56.9461C271.992 61.0367 273.072 65.8052 273.072 71.2516C273.072 76.6751 271.992 81.4436 269.832 85.5572C267.694 89.6477 264.627 92.8421 260.628 95.1401C256.652 97.4152 251.884 98.5528 246.322 98.5528ZM246.426 85.8329C248.448 85.8329 250.16 85.2124 251.562 83.9715C252.964 82.7305 254.032 81.007 254.768 78.8008C255.526 76.5947 255.905 74.0438 255.905 71.1482C255.905 68.2067 255.526 65.6328 254.768 63.4267C254.032 61.2205 252.964 59.497 251.562 58.256C250.16 57.015 248.448 56.3946 246.426 56.3946C244.335 56.3946 242.565 57.015 241.117 58.256C239.692 59.497 238.601 61.2205 237.842 63.4267C237.107 65.6328 236.739 68.2067 236.739 71.1482C236.739 74.0438 237.107 76.5947 237.842 78.8008C238.601 81.007 239.692 82.7305 241.117 83.9715C242.565 85.2124 244.335 85.8329 246.426 85.8329Z" fill="#181818"/>
<path d="M171.623 97.553V26.9561H219.813V40.8135H188.686V55.2913H216.745V69.1832H188.686V97.553H171.623Z" fill="#181818"/>
</svg>
